<svg height="398pt" viewBox="0 -41 398.0951 398" width="398pt" xmlns="http://www.w3.org/2000/svg"><path d="m184.320312 55.855469c0 18.847656-15.277343 34.125-34.125 34.125h-109.242187c-18.847656 0-34.125-15.277344-34.125-34.125v-13.667969c0-18.847656 15.277344-34.125 34.125-34.125h109.242187c18.847657 0 34.125 15.277344 34.125 34.125zm0 0" fill="#606060"/><path d="m150.191406 96.808594h-109.238281c-22.582031 0-40.953125-18.375-40.953125-40.953125v-13.667969c0-22.578125 18.371094-40.953125 40.953125-40.953125h109.242187c22.582032 0 40.953126 18.375 40.953126 40.953125v13.667969c0 22.578125-18.371094 40.953125-40.957032 40.953125zm-109.238281-81.921875c-15.054687 0-27.300781 12.25-27.300781 27.300781v13.667969c0 15.050781 12.246094 27.300781 27.300781 27.300781h109.242187c15.050782 0 27.296876-12.25 27.296876-27.300781v-13.667969c0-15.050781-12.246094-27.300781-27.296876-27.300781zm0 0"/><path d="m98.988281 308.433594h-.433593c-16.492188 0-30.292969-11.664063-30.292969-28.160156v-190.292969h61.441406v190.292969c.003906 16.496093-14.222656 28.160156-30.714844 28.160156zm0 0" fill="#ddd"/><path d="m98.988281 315.261719h-.429687c-20.8125 0-37.117188-15.367188-37.117188-34.988281v-190.292969c0-3.769531 3.058594-6.824219 6.824219-6.824219h61.441406c3.769531 0 6.828125 3.054688 6.828125 6.824219v190.292969c0 19.621093-16.5 34.988281-37.546875 34.988281zm-23.894531-218.453125v183.464844c0 12.160156 10.089844 21.335937 23.464844 21.335937h.429687c11.742188 0 23.890625-7.980469 23.890625-21.335937v-183.464844zm0 0"/><path d="m42.660156 149.714844c-3.523437 0-6.507812-2.707032-6.796875-6.28125-.304687-3.753906 2.496094-7.042969 6.253907-7.351563l105.8125-8.535156c3.726562-.339844 7.050781 2.5 7.351562 6.261719.304688 3.753906-2.492188 7.046875-6.25 7.351562l-105.816406 8.535156c-.1875.011719-.375.019532-.554688.019532zm0 0"/><path d="m42.660156 197.5c-3.523437 0-6.507812-2.707031-6.796875-6.277344-.304687-3.757812 2.496094-7.046875 6.253907-7.355468l105.8125-8.53125c3.726562-.28125 7.050781 2.492187 7.351562 6.257812.304688 3.757812-2.492188 7.046875-6.25 7.355469l-105.816406 8.53125c-.1875.015625-.375.019531-.554688.019531zm0 0"/><path d="m42.660156 245.289062c-3.523437 0-6.507812-2.707031-6.796875-6.28125-.304687-3.753906 2.496094-7.046874 6.253907-7.351562l105.8125-8.535156c3.726562-.355469 7.050781 2.5 7.351562 6.261718.304688 3.753907-2.492188 7.042969-6.25 7.351563l-105.816406 8.535156c-.1875.011719-.375.019531-.554688.019531zm0 0"/><path d="m42.660156 286.25c-3.523437 0-6.507812-2.707031-6.796875-6.28125-.304687-3.753906 2.496094-7.046875 6.253907-7.351562l105.8125-8.535157c3.726562-.335937 7.050781 2.5 7.351562 6.261719.304688 3.753906-2.492188 7.042969-6.25 7.351562l-105.816406 8.53125c-.1875.015626-.375.023438-.554688.023438zm0 0"/><path d="m279.894531 59.746094-75.09375 41.996094v83.996093l75.09375 42 75.09375-42v-83.996093zm1.027344 119.835937c-19.796875 0-35.839844-16.046875-35.839844-35.839843 0-19.792969 16.042969-35.839844 35.839844-35.839844 19.792969 0 35.839844 16.046875 35.839844 35.839844 0 19.792968-16.046875 35.839843-35.839844 35.839843zm0 0" fill="#ddd"/><path d="m279.894531 234.558594c-1.152343 0-2.296875-.285156-3.335937-.867188l-75.09375-41.992187c-2.15625-1.207031-3.492188-3.484375-3.492188-5.960938v-83.996093c0-2.476563 1.339844-4.757813 3.492188-5.960938l75.09375-41.996094c2.070312-1.160156 4.59375-1.160156 6.667968 0l75.089844 41.996094c2.160156 1.207031 3.492188 3.484375 3.492188 5.960938v83.996093c0 2.476563-1.335938 4.753907-3.492188 5.960938l-75.089844 41.992187c-1.039062.582032-2.1875.867188-3.332031.867188zm-68.269531-52.824219 68.269531 38.183594 68.265625-38.183594v-75.988281l-68.265625-38.179688-68.269531 38.179688zm69.296875 4.675781c-23.527344 0-42.667969-19.140625-42.667969-42.667968 0-23.527344 19.140625-42.667969 42.667969-42.667969s42.664063 19.140625 42.664063 42.667969c0 23.527343-19.136719 42.667968-42.664063 42.667968zm0-71.683594c-16 0-29.015625 13.011719-29.015625 29.015626 0 16 13.015625 29.011718 29.015625 29.011718 15.996094 0 29.011719-13.011718 29.011719-29.011718 0-16.003907-13.015625-29.015626-29.011719-29.015626zm0 0"/><path d="m333.066406 60.472656c-.929687 0-1.878906-.1875-2.777344-.59375-3.445312-1.539062-4.988281-5.574218-3.453124-9.019531l16.707031-37.402344c1.535156-3.441406 5.570312-4.992187 9.015625-3.445312 3.445312 1.539062 4.988281 5.574219 3.453125 9.019531l-16.707031 37.402344c-1.136719 2.535156-3.628907 4.039062-6.238282 4.039062zm0 0"/><path d="m363.203125 73.929688c-2.140625 0-4.25-1.007813-5.582031-2.890626-2.175782-3.070312-1.445313-7.328124 1.632812-9.511718l28.070313-19.859375c3.074219-2.171875 7.339843-1.453125 9.515625 1.636719 2.179687 3.070312 1.449218 7.332031-1.628906 9.511718l-28.074219 19.859375c-1.195313.847657-2.570313 1.253907-3.933594 1.253907zm0 0"/><path d="m302.933594 47.019531c-3.578125 0-6.585938-2.785156-6.804688-6.40625l-2.0625-33.320312c-.234375-3.761719 2.628906-7 6.390625-7.230469 3.707031-.234375 7.003907 2.628906 7.234375 6.390625l2.0625 33.320313c.230469 3.761718-2.632812 7.003906-6.394531 7.234374-.144531.007813-.28125.011719-.425781.011719zm0 0"/></svg>